<?xml version="1.0" encoding="UTF-8" standalone="no"?>
<!-- Created with Inkscape (http://www.inkscape.org/) -->

<svg
   version="1.1"
   id="svg2013"
   xml:space="preserve"
   width="462.29733"
   height="387.06268"
   viewBox="0 0 462.29733 387.06268"
   sodipodi:docname="001.svg"
   inkscape:version="1.1.2 (08b2f3d93c, 2022-04-05)"
   xmlns:inkscape="http://www.inkscape.org/namespaces/inkscape"
   xmlns:sodipodi="http://sodipodi.sourceforge.net/DTD/sodipodi-0.dtd"
   xmlns="http://www.w3.org/2000/svg"
   xmlns:svg="http://www.w3.org/2000/svg"><defs
     id="defs2017" /><sodipodi:namedview
     id="namedview2015"
     pagecolor="#ffffff"
     bordercolor="#666666"
     borderopacity="1.0"
     inkscape:pageshadow="2"
     inkscape:pageopacity="0.0"
     inkscape:pagecheckerboard="0"
     showgrid="false"
     inkscape:zoom="2.0849336"
     inkscape:cx="231.18242"
     inkscape:cy="193.53134"
     inkscape:window-width="2488"
     inkscape:window-height="1016"
     inkscape:window-x="72"
     inkscape:window-y="27"
     inkscape:window-maximized="1"
     inkscape:current-layer="g2019" /><g
     id="g2019"
     inkscape:groupmode="layer"
     inkscape:label="001"
     transform="matrix(1.3333333,0,0,-1.3333333,0,387.06267)"><g
       id="g2021"
       transform="translate(170.477,142.131)"><g
         id="g2023"><g
           id="g2025"><g
             id="g2027"><path
               d="m -169.79753,-113.38724 h 339.59506 m -339.59506,28.34682 h 339.59506 m -339.59506,28.3468 H 169.79753 M -169.79753,-28.3468 H 169.79753 M -169.79753,0 h 339.59506 m -339.59506,28.3468 h 339.59506 m -339.59506,28.34682 h 339.59506 m -339.59506,28.3468 h 339.59506 m -339.59506,28.34682 h 339.59506 m -311.53157,-254.83797 v 282.90146 m 28.3468,-282.90146 v 282.90146 m 28.34682,-282.90146 v 282.90146 m 28.3468,-282.90146 V 141.45073 M -28.3468,-141.45073 V 141.45073 M 0,-141.45073 v 282.90146 m 28.3468,-282.90146 v 282.90146 m 28.34682,-282.90146 v 282.90146 m 28.3468,-282.90146 v 282.90146 m 28.34682,-282.90146 v 282.90146 m 28.3468,-282.90146 v 282.90146"
               style="fill:none;stroke:#ffffff;stroke-width:0.3985;stroke-linecap:butt;stroke-linejoin:miter;stroke-miterlimit:10;stroke-dasharray:2.98883, 2.98883;stroke-dashoffset:0;stroke-opacity:1"
               id="path2029" /></g><g
             id="g2031"><path
               d="M -170.08086,0 H 169.37349"
               style="fill:none;stroke:#ffffff;stroke-width:0.79701;stroke-linecap:butt;stroke-linejoin:miter;stroke-miterlimit:10;stroke-dasharray:none;stroke-opacity:1"
               id="path2033" /><g
               id="g2035"
               transform="translate(169.37349)"><g
                 id="g2037"><path
                   d="M -1.55415,2.0722 C -1.42464,1.29512 0,0.1295 0.38852,0 0,-0.1295 -1.42464,-1.29512 -1.55415,-2.0722"
                   style="fill:none;stroke:#ffffff;stroke-width:0.6376;stroke-linecap:round;stroke-linejoin:round;stroke-miterlimit:10;stroke-dasharray:none;stroke-opacity:1"
                   id="path2039" /></g></g><g
               id="g2041"><g
                 id="g2043"
                 transform="translate(167.232,-8.009)"><g
                   id="g2045"><g
                     id="g2047"
                     transform="translate(-337.709,-134.122)"><text
                       transform="matrix(1,0,0,-1,337.709,134.122)"
                       style="font-variant:normal;font-weight:normal;font-size:9.9626px;font-family:CMMI10;-inkscape-font-specification:CMMI10;writing-mode:lr-tb;fill:#ffffff;fill-opacity:1;fill-rule:nonzero;stroke:none"
                       id="text2051"><tspan
                         x="0"
                         y="0"
                         id="tspan2049">x</tspan></text><g
                       id="g2053"
                       transform="translate(337.709,134.122)" /></g></g><g
                   id="g2055"
                   transform="translate(-167.232,8.009)" /></g></g></g><g
             id="g2057"><path
               d="M 0,-141.73404 V 141.02667"
               style="fill:none;stroke:#ffffff;stroke-width:0.79701;stroke-linecap:butt;stroke-linejoin:miter;stroke-miterlimit:10;stroke-dasharray:none;stroke-opacity:1"
               id="path2059" /><g
               id="g2061"
               transform="rotate(90,-70.513335,70.513335)"><g
                 id="g2063"><path
                   d="M -1.55415,2.0722 C -1.42464,1.29512 0,0.1295 0.38852,0 0,-0.1295 -1.42464,-1.29512 -1.55415,-2.0722"
                   style="fill:none;stroke:#ffffff;stroke-width:0.6376;stroke-linecap:round;stroke-linejoin:round;stroke-miterlimit:10;stroke-dasharray:none;stroke-opacity:1"
                   id="path2065" /></g></g><g
               id="g2067"><g
                 id="g2069"
                 transform="translate(-8.961,140.556)"><g
                   id="g2071"><g
                     id="g2073"
                     transform="translate(-161.516,-282.687)"><text
                       transform="matrix(1,0,0,-1,161.516,282.687)"
                       style="font-variant:normal;font-weight:normal;font-size:9.9626px;font-family:CMMI10;-inkscape-font-specification:CMMI10;writing-mode:lr-tb;fill:#ffffff;fill-opacity:1;fill-rule:nonzero;stroke:none"
                       id="text2077"><tspan
                         x="0"
                         y="0"
                         id="tspan2075">y</tspan></text><g
                       id="g2079"
                       transform="translate(161.516,282.687)" /></g></g><g
                   id="g2081"
                   transform="translate(8.961,-140.556)" /></g></g></g><g
             id="g2083"><path
               d="m -141.73404,0 2.86298,-9.61012 2.86296,-8.30429 2.86297,-7.05773 2.86296,-5.88986 2.86298,-4.79901 2.86298,-3.77821 2.86296,-2.82276 2.86296,-1.94641 2.86297,-1.11984 2.86298,-0.36507 2.86296,0.3244 2.86298,0.9572 2.86297,1.5273 2.86295,2.04894 2.86298,2.50395 2.86297,2.90666 2.86298,3.27129 2.86296,3.56628 2.86297,3.82925 2.86296,4.03385 2.86296,4.20341 2.86298,4.32408 2.86298,4.40021 2.86297,4.44778 2.86295,4.44387 2.86298,4.41579 2.86297,4.34961 2.86297,4.24923 2.86297,4.12338 2.86297,3.95818 2.86295,3.78037 2.86298,3.56932 2.86297,3.32664 2.86298,3.0788 2.86296,2.79548 2.86298,2.5096 2.86296,2.18993 2.86296,1.87376 2.86297,1.53423 2.86298,1.17476 2.86297,0.83005 2.86295,0.44506 2.86298,0.08956 2.86297,-0.30236 2.86296,-0.66396 2.86298,-1.0424 2.86298,-1.44252 2.86296,-1.7946 2.86296,-2.18345 2.86294,-2.53121 2.86298,-2.90924 2.86296,-3.22675 2.86298,-3.58789 2.86296,-3.88031 2.86297,-4.18264 2.86297,-4.50013 2.86297,-4.73931 2.86298,-5.01658 2.86295,-5.21252 2.86297,-5.4054 2.86297,-5.58882 2.86296,-5.73416 2.86298,-5.88295 2.86298,-5.94003 2.86296,-6.0231 2.86296,-6.00709 2.86297,-6.03088 2.86298,-5.93269 2.86296,-5.8358 2.86298,-5.73631 2.86296,-5.51574 2.86297,-5.32582 2.86296,-5.01442 2.86298,-4.72203 2.86298,-4.31758 2.86296,-3.9227 2.86296,-3.4058 2.86297,-2.87162 2.86298,-2.30629 2.86296,-1.61812 2.86298,-0.93342 2.86296,-0.12715 2.86296,0.69205 2.86298,1.63067 2.86297,2.60907 2.86298,3.63721 2.86296,4.77695 2.86296,5.95648 2.86298,7.24501 2.86296,8.57896 2.86297,10.0193 2.86298,11.52628 2.86296,13.10979 2.86296,14.79107 2.86298,16.55021 2.86297,18.3997 2.86296,20.34312 2.86298,22.36827 2.86297,24.50284"
               style="fill:none;stroke:#ffffff;stroke-width:0.79701;stroke-linecap:butt;stroke-linejoin:miter;stroke-miterlimit:10;stroke-dasharray:none;stroke-opacity:1"
               id="path2085" /></g><g
             id="g2087"><g
               id="g2089"><path
                 d="m -139.6206,0 c 0,1.16722 -0.94622,2.11343 -2.11344,2.11343 -1.16722,0 -2.11345,-0.94621 -2.11345,-2.11343 0,-1.16722 0.94623,-2.11343 2.11345,-2.11343 1.16722,0 2.11344,0.94621 2.11344,2.11343 z"
                 style="fill:#427087;fill-opacity:1;fill-rule:nonzero;stroke:#ffffff;stroke-width:0.79701;stroke-linecap:butt;stroke-linejoin:miter;stroke-miterlimit:10;stroke-dasharray:none;stroke-opacity:1"
                 id="path2091" /></g><g
               id="g2093"
               transform="translate(-141.732)"><g
                 id="g2095" /><g
                 id="g2097"
                 transform="translate(141.732)" /></g></g><g
             id="g2099"><g
               id="g2101"><path
                 d="m 143.84749,85.04042 c 0,1.16722 -0.94623,2.11343 -2.11345,2.11343 -1.16722,0 -2.11344,-0.94621 -2.11344,-2.11343 0,-1.16722 0.94622,-2.11343 2.11344,-2.11343 1.16722,0 2.11345,0.94621 2.11345,2.11343 z"
                 style="fill:#427087;fill-opacity:1;fill-rule:nonzero;stroke:#ffffff;stroke-width:0.79701;stroke-linecap:butt;stroke-linejoin:miter;stroke-miterlimit:10;stroke-dasharray:none;stroke-opacity:1"
                 id="path2103" /></g><g
               id="g2105"
               transform="translate(141.732,85.039)"><g
                 id="g2107" /><g
                 id="g2109"
                 transform="translate(-141.732,-85.039)" /></g></g><g
             id="g2111"><g
               id="g2113" /><g
               id="g2115"
               transform="translate(147.764,90.519)"><g
                 id="g2117"><g
                   id="g2119"
                   transform="translate(-318.241,-232.65)"><text
                     transform="matrix(1,0,0,-1,318.241,232.65)"
                     style="font-variant:normal;font-weight:normal;font-size:9.9626px;font-family:CMR10;-inkscape-font-specification:CMR10;writing-mode:lr-tb;fill:#ffffff;fill-opacity:1;fill-rule:nonzero;stroke:none"
                     id="text2123"><tspan
                       x="0 3.8744552"
                       y="0"
                       sodipodi:role="line"
                       id="tspan2121">(5</tspan></text><text
                     transform="matrix(1,0,0,-1,327.097,232.65)"
                     style="font-variant:normal;font-weight:normal;font-size:9.9626px;font-family:CMMI10;-inkscape-font-specification:CMMI10;writing-mode:lr-tb;fill:#ffffff;fill-opacity:1;fill-rule:nonzero;stroke:none"
                     id="text2127"><tspan
                       x="0"
                       y="0"
                       id="tspan2125">,</tspan></text><text
                     transform="matrix(1,0,0,-1,331.525,232.65)"
                     style="font-variant:normal;font-weight:normal;font-size:9.9626px;font-family:CMR10;-inkscape-font-specification:CMR10;writing-mode:lr-tb;fill:#ffffff;fill-opacity:1;fill-rule:nonzero;stroke:none"
                     id="text2131"><tspan
                       x="0 4.9812999"
                       y="0"
                       sodipodi:role="line"
                       id="tspan2129">3)</tspan></text><g
                     id="g2133"
                     transform="translate(318.241,232.65)" /></g></g><g
                 id="g2135"
                 transform="translate(-147.764,-90.519)" /></g></g></g></g></g></g></svg>
