<?xml version="1.0" encoding="UTF-8" standalone="no"?>
<!-- Created with Inkscape (http://www.inkscape.org/) -->

<svg
   version="1.1"
   id="svg863"
   xml:space="preserve"
   width="333.66"
   height="183.35468"
   viewBox="0 0 333.66 183.35468"
   sodipodi:docname="001.svg"
   inkscape:version="1.1.2 (08b2f3d93c, 2022-04-05)"
   xmlns:inkscape="http://www.inkscape.org/namespaces/inkscape"
   xmlns:sodipodi="http://sodipodi.sourceforge.net/DTD/sodipodi-0.dtd"
   xmlns="http://www.w3.org/2000/svg"
   xmlns:svg="http://www.w3.org/2000/svg"><defs
     id="defs867" /><sodipodi:namedview
     id="namedview865"
     pagecolor="#ffffff"
     bordercolor="#666666"
     borderopacity="1.0"
     inkscape:pageshadow="2"
     inkscape:pageopacity="0.0"
     inkscape:pagecheckerboard="0"
     showgrid="false"
     inkscape:zoom="3.7762992"
     inkscape:cx="166.83"
     inkscape:cy="28.202215"
     inkscape:window-width="2488"
     inkscape:window-height="1016"
     inkscape:window-x="72"
     inkscape:window-y="27"
     inkscape:window-maximized="1"
     inkscape:current-layer="g869" /><g
     id="g869"
     inkscape:groupmode="layer"
     inkscape:label="001"
     transform="matrix(1.3333333,0,0,-1.3333333,0,183.35467)"><g
       id="g871"
       transform="translate(40.083,74.756)"><g
         id="g873"><g
           id="g875"><g
             id="g877"><path
               d="M 39.68535,0 C 39.68535,34.4425 21.9179,62.36288 0,62.36288 -21.9179,62.36288 -39.68535,34.4425 -39.68535,0 c 0,-34.4425 17.76745,-62.36288 39.68535,-62.36288 21.9179,0 39.68535,27.92038 39.68535,62.36288 z"
               style="fill:none;stroke:#ffffff;stroke-width:0.79701;stroke-linecap:butt;stroke-linejoin:miter;stroke-miterlimit:10;stroke-dasharray:none;stroke-opacity:1"
               id="path879" /><g
               id="g881"><g
                 id="g883"
                 transform="translate(-32.082,-71.435)"><g
                   id="g885"><g
                     id="g887"
                     transform="translate(-8.001,-3.321)"><text
                       transform="matrix(1,0,0,-1,8.001,3.321)"
                       style="font-variant:normal;font-weight:normal;font-size:9.9626px;font-family:CMMI10;-inkscape-font-specification:CMMI10;writing-mode:lr-tb;fill:#ffffff;fill-opacity:1;fill-rule:nonzero;stroke:none"
                       id="text891"><tspan
                         x="0"
                         y="0"
                         id="tspan889">A</tspan></text><g
                       id="g893"
                       transform="translate(8.001,3.321)" /></g></g><g
                   id="g895"
                   transform="translate(32.082,71.435)" /></g></g></g><g
             id="g897"><path
               d="m 209.7662,0 c 0,34.4425 -17.76745,62.36288 -39.68534,62.36288 -21.9179,0 -39.68536,-27.92038 -39.68536,-62.36288 0,-34.4425 17.76746,-62.36288 39.68536,-62.36288 21.91789,0 39.68534,27.92038 39.68534,62.36288 z"
               style="fill:none;stroke:#ffffff;stroke-width:0.79701;stroke-linecap:butt;stroke-linejoin:miter;stroke-miterlimit:10;stroke-dasharray:none;stroke-opacity:1"
               id="path899" /><g
               id="g901"><g
                 id="g903"
                 transform="translate(194.397,-71.435)"><g
                   id="g905"><g
                     id="g907"
                     transform="translate(-234.48,-3.321)"><text
                       transform="matrix(1,0,0,-1,234.48,3.321)"
                       style="font-variant:normal;font-weight:normal;font-size:9.9626px;font-family:CMMI10;-inkscape-font-specification:CMMI10;writing-mode:lr-tb;fill:#ffffff;fill-opacity:1;fill-rule:nonzero;stroke:none"
                       id="text911"><tspan
                         x="0"
                         y="0"
                         id="tspan909">B</tspan></text><g
                       id="g913"
                       transform="translate(234.48,3.321)" /></g></g><g
                   id="g915"
                   transform="translate(-194.397,71.435)" /></g></g></g><g
             id="g917"><g
               id="g919"><path
                 d="m 12.74757,34.01608 c 0,0.77819 -0.63084,1.40903 -1.40902,1.40903 -0.7782,0 -1.40905,-0.63084 -1.40905,-1.40903 0,-0.7782 0.63085,-1.40904 1.40905,-1.40904 0.77818,0 1.40902,0.63084 1.40902,1.40904 z"
                 style="fill:#ffffff;fill-opacity:1;fill-rule:nonzero;stroke:#ffffff;stroke-width:0.3985;stroke-linecap:butt;stroke-linejoin:miter;stroke-miterlimit:10;stroke-dasharray:none;stroke-opacity:1"
                 id="path921" /></g><g
               id="g923"
               transform="translate(11.339,34.015)"><g
                 id="g925" /><g
                 id="g927"
                 transform="translate(-11.339,-34.015)" /></g></g><g
             id="g929"><g
               id="g931" /><g
               id="g933"
               transform="translate(0.945,31.871)"><g
                 id="g935"><g
                   id="g937"
                   transform="translate(-41.028,-106.627)"><text
                     transform="matrix(1,0,0,-1,41.028,106.627)"
                     style="font-variant:normal;font-weight:normal;font-size:9.9626px;font-family:CMMI10;-inkscape-font-specification:CMMI10;writing-mode:lr-tb;fill:#ffffff;fill-opacity:1;fill-rule:nonzero;stroke:none"
                     id="text941"><tspan
                       x="0"
                       y="0"
                       id="tspan939">a</tspan></text><g
                     id="g943"
                     transform="translate(41.028,106.627)" /></g></g><g
                 id="g945"
                 transform="translate(-0.945,-31.871)" /></g></g><g
             id="g947"><g
               id="g949"><path
                 d="m -4.26022,14.17339 c 0,0.77819 -0.63086,1.40904 -1.40905,1.40904 -0.77818,0 -1.40904,-0.63085 -1.40904,-1.40904 0,-0.77819 0.63086,-1.40905 1.40904,-1.40905 0.77819,0 1.40905,0.63086 1.40905,1.40905 z"
                 style="fill:#ffffff;fill-opacity:1;fill-rule:nonzero;stroke:#ffffff;stroke-width:0.3985;stroke-linecap:butt;stroke-linejoin:miter;stroke-miterlimit:10;stroke-dasharray:none;stroke-opacity:1"
                 id="path951" /></g><g
               id="g953"
               transform="translate(-5.669,14.173)"><g
                 id="g955" /><g
                 id="g957"
                 transform="translate(5.669,-14.173)" /></g></g><g
             id="g959"><g
               id="g961" /><g
               id="g963"
               transform="translate(-15.073,10.714)"><g
                 id="g965"><g
                   id="g967"
                   transform="translate(-25.01,-85.47)"><text
                     transform="matrix(1,0,0,-1,25.01,85.47)"
                     style="font-variant:normal;font-weight:normal;font-size:9.9626px;font-family:CMMI10;-inkscape-font-specification:CMMI10;writing-mode:lr-tb;fill:#ffffff;fill-opacity:1;fill-rule:nonzero;stroke:none"
                     id="text971"><tspan
                       x="0"
                       y="0"
                       id="tspan969">b</tspan></text><g
                     id="g973"
                     transform="translate(25.01,85.47)" /></g></g><g
                 id="g975"
                 transform="translate(15.073,-10.714)" /></g></g><g
             id="g977"><g
               id="g979"><path
                 d="m 15.58243,-5.66927 c 0,0.77819 -0.63085,1.40905 -1.40904,1.40905 -0.77819,0 -1.40905,-0.63086 -1.40905,-1.40905 0,-0.77818 0.63086,-1.40904 1.40905,-1.40904 0.77819,0 1.40904,0.63086 1.40904,1.40904 z"
                 style="fill:#ffffff;fill-opacity:1;fill-rule:nonzero;stroke:#ffffff;stroke-width:0.3985;stroke-linecap:butt;stroke-linejoin:miter;stroke-miterlimit:10;stroke-dasharray:none;stroke-opacity:1"
                 id="path981" /></g><g
               id="g983"
               transform="translate(14.174,-5.669)"><g
                 id="g985" /><g
                 id="g987"
                 transform="translate(-14.174,5.669)" /></g></g><g
             id="g989"><g
               id="g991" /><g
               id="g993"
               transform="translate(4.734,-7.814)"><g
                 id="g995"><g
                   id="g997"
                   transform="translate(-44.817,-66.942)"><text
                     transform="matrix(1,0,0,-1,44.817,66.942)"
                     style="font-variant:normal;font-weight:normal;font-size:9.9626px;font-family:CMMI10;-inkscape-font-specification:CMMI10;writing-mode:lr-tb;fill:#ffffff;fill-opacity:1;fill-rule:nonzero;stroke:none"
                     id="text1001"><tspan
                       x="0"
                       y="0"
                       id="tspan999">c</tspan></text><g
                     id="g1003"
                     transform="translate(44.817,66.942)" /></g></g><g
                 id="g1005"
                 transform="translate(-4.734,7.814)" /></g></g><g
             id="g1007"><g
               id="g1009"><path
                 d="m -15.5992,-25.51193 c 0,0.77818 -0.63086,1.40904 -1.40904,1.40904 -0.77818,0 -1.40904,-0.63086 -1.40904,-1.40904 0,-0.7782 0.63086,-1.40904 1.40904,-1.40904 0.77818,0 1.40904,0.63084 1.40904,1.40904 z"
                 style="fill:#ffffff;fill-opacity:1;fill-rule:nonzero;stroke:#ffffff;stroke-width:0.3985;stroke-linecap:butt;stroke-linejoin:miter;stroke-miterlimit:10;stroke-dasharray:none;stroke-opacity:1"
                 id="path1011" /></g><g
               id="g1013"
               transform="translate(-17.008,-25.512)"><g
                 id="g1015" /><g
                 id="g1017"
                 transform="translate(17.008,25.512)" /></g></g><g
             id="g1019"><g
               id="g1021" /><g
               id="g1023"
               transform="translate(-27.321,-28.971)"><g
                 id="g1025"><g
                   id="g1027"
                   transform="translate(-12.762,-45.785)"><text
                     transform="matrix(1,0,0,-1,12.762,45.785)"
                     style="font-variant:normal;font-weight:normal;font-size:9.9626px;font-family:CMMI10;-inkscape-font-specification:CMMI10;writing-mode:lr-tb;fill:#ffffff;fill-opacity:1;fill-rule:nonzero;stroke:none"
                     id="text1031"><tspan
                       x="0"
                       y="0"
                       id="tspan1029">d</tspan></text><g
                     id="g1033"
                     transform="translate(12.762,45.785)" /></g></g><g
                 id="g1035"
                 transform="translate(27.321,28.971)" /></g></g><g
             id="g1037"><g
               id="g1039"><path
                 d="m 9.91316,-34.01608 c 0,0.7782 -0.63086,1.40904 -1.40904,1.40904 -0.7782,0 -1.40904,-0.63084 -1.40904,-1.40904 0,-0.77819 0.63084,-1.40903 1.40904,-1.40903 0.77818,0 1.40904,0.63084 1.40904,1.40903 z"
                 style="fill:#ffffff;fill-opacity:1;fill-rule:nonzero;stroke:#ffffff;stroke-width:0.3985;stroke-linecap:butt;stroke-linejoin:miter;stroke-miterlimit:10;stroke-dasharray:none;stroke-opacity:1"
                 id="path1041" /></g><g
               id="g1043"
               transform="translate(8.504,-34.016)"><g
                 id="g1045" /><g
                 id="g1047"
                 transform="translate(-8.504,34.016)" /></g></g><g
             id="g1049"><g
               id="g1051" /><g
               id="g1053"
               transform="translate(-1.263,-36.161)"><g
                 id="g1055"><g
                   id="g1057"
                   transform="translate(-38.82,-38.595)"><text
                     transform="matrix(1,0,0,-1,38.82,38.595)"
                     style="font-variant:normal;font-weight:normal;font-size:9.9626px;font-family:CMMI10;-inkscape-font-specification:CMMI10;writing-mode:lr-tb;fill:#ffffff;fill-opacity:1;fill-rule:nonzero;stroke:none"
                     id="text1061"><tspan
                       x="0"
                       y="0"
                       id="tspan1059">e</tspan></text><g
                     id="g1063"
                     transform="translate(38.82,38.595)" /></g></g><g
                 id="g1065"
                 transform="translate(1.263,36.161)" /></g></g><g
             id="g1067"><g
               id="g1069"><path
                 d="m 179.99402,36.85092 c 0,0.7782 -0.63086,1.40904 -1.40904,1.40904 -0.77818,0 -1.40905,-0.63084 -1.40905,-1.40904 0,-0.77818 0.63087,-1.40904 1.40905,-1.40904 0.77818,0 1.40904,0.63086 1.40904,1.40904 z"
                 style="fill:#ffffff;fill-opacity:1;fill-rule:nonzero;stroke:#ffffff;stroke-width:0.3985;stroke-linecap:butt;stroke-linejoin:miter;stroke-miterlimit:10;stroke-dasharray:none;stroke-opacity:1"
                 id="path1071" /></g><g
               id="g1073"
               transform="translate(178.583,36.85)"><g
                 id="g1075" /><g
                 id="g1077"
                 transform="translate(-178.583,-36.85)" /></g></g><g
             id="g1079"><g
               id="g1081" /><g
               id="g1083"
               transform="translate(183.711,33.64)"><g
                 id="g1085"><g
                   id="g1087"
                   transform="translate(-223.794,-108.396)"><text
                     transform="matrix(1,0,0,-1,223.794,108.396)"
                     style="font-variant:normal;font-weight:normal;font-size:9.9626px;font-family:CMR10;-inkscape-font-specification:CMR10;writing-mode:lr-tb;fill:#ffffff;fill-opacity:1;fill-rule:nonzero;stroke:none"
                     id="text1091"><tspan
                       x="0"
                       y="0"
                       id="tspan1089">1</tspan></text><g
                     id="g1093"
                     transform="translate(223.794,108.396)" /></g></g><g
                 id="g1095"
                 transform="translate(-183.711,-33.64)" /></g></g><g
             id="g1097"><g
               id="g1099"><path
                 d="m 154.48163,17.00824 c 0,0.77818 -0.63085,1.40904 -1.40904,1.40904 -0.77819,0 -1.40905,-0.63086 -1.40905,-1.40904 0,-0.77818 0.63086,-1.40904 1.40905,-1.40904 0.77819,0 1.40904,0.63086 1.40904,1.40904 z"
                 style="fill:#ffffff;fill-opacity:1;fill-rule:nonzero;stroke:#ffffff;stroke-width:0.3985;stroke-linecap:butt;stroke-linejoin:miter;stroke-miterlimit:10;stroke-dasharray:none;stroke-opacity:1"
                 id="path1101" /></g><g
               id="g1103"
               transform="translate(153.071,17.008)"><g
                 id="g1105" /><g
                 id="g1107"
                 transform="translate(-153.071,-17.008)" /></g></g><g
             id="g1109"><g
               id="g1111" /><g
               id="g1113"
               transform="translate(158.199,13.798)"><g
                 id="g1115"><g
                   id="g1117"
                   transform="translate(-198.282,-88.554)"><text
                     transform="matrix(1,0,0,-1,198.282,88.554)"
                     style="font-variant:normal;font-weight:normal;font-size:9.9626px;font-family:CMR10;-inkscape-font-specification:CMR10;writing-mode:lr-tb;fill:#ffffff;fill-opacity:1;fill-rule:nonzero;stroke:none"
                     id="text1121"><tspan
                       x="0"
                       y="0"
                       id="tspan1119">2</tspan></text><g
                     id="g1123"
                     transform="translate(198.282,88.554)" /></g></g><g
                 id="g1125"
                 transform="translate(-158.199,-13.798)" /></g></g><g
             id="g1127"><g
               id="g1129"><path
                 d="m 182.82845,-5.66927 c 0,0.77819 -0.63086,1.40905 -1.40905,1.40905 -0.7782,0 -1.40904,-0.63086 -1.40904,-1.40905 0,-0.77818 0.63084,-1.40904 1.40904,-1.40904 0.77819,0 1.40905,0.63086 1.40905,1.40904 z"
                 style="fill:#ffffff;fill-opacity:1;fill-rule:nonzero;stroke:#ffffff;stroke-width:0.3985;stroke-linecap:butt;stroke-linejoin:miter;stroke-miterlimit:10;stroke-dasharray:none;stroke-opacity:1"
                 id="path1131" /></g><g
               id="g1133"
               transform="translate(181.417,-5.669)"><g
                 id="g1135" /><g
                 id="g1137"
                 transform="translate(-181.417,5.669)" /></g></g><g
             id="g1139"><g
               id="g1141" /><g
               id="g1143"
               transform="translate(186.545,-8.879)"><g
                 id="g1145"><g
                   id="g1147"
                   transform="translate(-226.628,-65.877)"><text
                     transform="matrix(1,0,0,-1,226.628,65.877)"
                     style="font-variant:normal;font-weight:normal;font-size:9.9626px;font-family:CMR10;-inkscape-font-specification:CMR10;writing-mode:lr-tb;fill:#ffffff;fill-opacity:1;fill-rule:nonzero;stroke:none"
                     id="text1151"><tspan
                       x="0"
                       y="0"
                       id="tspan1149">3</tspan></text><g
                     id="g1153"
                     transform="translate(226.628,65.877)" /></g></g><g
                 id="g1155"
                 transform="translate(-186.545,8.879)" /></g></g><g
             id="g1157"><g
               id="g1159"><path
                 d="m 171.4899,-22.67752 c 0,0.7782 -0.63086,1.40904 -1.40904,1.40904 -0.7782,0 -1.40905,-0.63084 -1.40905,-1.40904 0,-0.77818 0.63085,-1.40903 1.40905,-1.40903 0.77818,0 1.40904,0.63085 1.40904,1.40903 z"
                 style="fill:#ffffff;fill-opacity:1;fill-rule:nonzero;stroke:#ffffff;stroke-width:0.3985;stroke-linecap:butt;stroke-linejoin:miter;stroke-miterlimit:10;stroke-dasharray:none;stroke-opacity:1"
                 id="path1161" /></g><g
               id="g1163"
               transform="translate(170.079,-22.677)"><g
                 id="g1165" /><g
                 id="g1167"
                 transform="translate(-170.079,22.677)" /></g></g><g
             id="g1169"><g
               id="g1171" /><g
               id="g1173"
               transform="translate(175.207,-25.887)"><g
                 id="g1175"><g
                   id="g1177"
                   transform="translate(-215.29,-48.869)"><text
                     transform="matrix(1,0,0,-1,215.29,48.869)"
                     style="font-variant:normal;font-weight:normal;font-size:9.9626px;font-family:CMR10;-inkscape-font-specification:CMR10;writing-mode:lr-tb;fill:#ffffff;fill-opacity:1;fill-rule:nonzero;stroke:none"
                     id="text1181"><tspan
                       x="0"
                       y="0"
                       id="tspan1179">4</tspan></text><g
                     id="g1183"
                     transform="translate(215.29,48.869)" /></g></g><g
                 id="g1185"
                 transform="translate(-175.207,25.887)" /></g></g><g
             id="g1187"><g
               id="g1189"><path
                 d="m 162.98575,-42.5202 c 0,0.7782 -0.63085,1.40904 -1.40905,1.40904 -0.77818,0 -1.40902,-0.63084 -1.40902,-1.40904 0,-0.77819 0.63084,-1.40904 1.40902,-1.40904 0.7782,0 1.40905,0.63085 1.40905,1.40904 z"
                 style="fill:#ffffff;fill-opacity:1;fill-rule:nonzero;stroke:#ffffff;stroke-width:0.3985;stroke-linecap:butt;stroke-linejoin:miter;stroke-miterlimit:10;stroke-dasharray:none;stroke-opacity:1"
                 id="path1191" /></g><g
               id="g1193"
               transform="translate(161.575,-42.52)"><g
                 id="g1195" /><g
                 id="g1197"
                 transform="translate(-161.575,42.52)" /></g></g><g
             id="g1199"><g
               id="g1201" /><g
               id="g1203"
               transform="translate(166.703,-45.73)"><g
                 id="g1205"><g
                   id="g1207"
                   transform="translate(-206.786,-29.026)"><text
                     transform="matrix(1,0,0,-1,206.786,29.026)"
                     style="font-variant:normal;font-weight:normal;font-size:9.9626px;font-family:CMR10;-inkscape-font-specification:CMR10;writing-mode:lr-tb;fill:#ffffff;fill-opacity:1;fill-rule:nonzero;stroke:none"
                     id="text1211"><tspan
                       x="0"
                       y="0"
                       id="tspan1209">5</tspan></text><g
                     id="g1213"
                     transform="translate(206.786,29.026)" /></g></g><g
                 id="g1215"
                 transform="translate(-166.703,45.73)" /></g></g><g
             id="g1217"><g
               id="g1219"><path
                 d="m 151.6472,-8.50412 c 0,0.7782 -0.63084,1.40904 -1.40904,1.40904 -0.77818,0 -1.40904,-0.63084 -1.40904,-1.40904 0,-0.77818 0.63086,-1.40904 1.40904,-1.40904 0.7782,0 1.40904,0.63086 1.40904,1.40904 z"
                 style="fill:#ffffff;fill-opacity:1;fill-rule:nonzero;stroke:#ffffff;stroke-width:0.3985;stroke-linecap:butt;stroke-linejoin:miter;stroke-miterlimit:10;stroke-dasharray:none;stroke-opacity:1"
                 id="path1221" /></g><g
               id="g1223"
               transform="translate(150.237,-8.504)"><g
                 id="g1225" /><g
                 id="g1227"
                 transform="translate(-150.237,8.504)" /></g></g><g
             id="g1229"><g
               id="g1231" /><g
               id="g1233"
               transform="translate(155.365,-11.714)"><g
                 id="g1235"><g
                   id="g1237"
                   transform="translate(-195.448,-63.042)"><text
                     transform="matrix(1,0,0,-1,195.448,63.042)"
                     style="font-variant:normal;font-weight:normal;font-size:9.9626px;font-family:CMR10;-inkscape-font-specification:CMR10;writing-mode:lr-tb;fill:#ffffff;fill-opacity:1;fill-rule:nonzero;stroke:none"
                     id="text1241"><tspan
                       x="0"
                       y="0"
                       id="tspan1239">6</tspan></text><g
                     id="g1243"
                     transform="translate(195.448,63.042)" /></g></g><g
                 id="g1245"
                 transform="translate(-155.365,11.714)" /></g></g><g
             id="g1247"><path
               d="M 12.9353,33.82446 150.77351,17.2841"
               style="fill:none;stroke:#ffffff;stroke-width:0.79701;stroke-linecap:butt;stroke-linejoin:miter;stroke-miterlimit:10;stroke-dasharray:none;stroke-opacity:1"
               id="path1249" /><g
               id="g1251"
               transform="matrix(0.99284,-0.11914,0.11914,0.99284,150.77351,17.28412)"><g
                 id="g1253"><path
                   d="M -1.55415,2.0722 C -1.42464,1.29512 0,0.1295 0.38852,0 0,-0.1295 -1.42464,-1.29512 -1.55415,-2.0722"
                   style="fill:none;stroke:#ffffff;stroke-width:0.6376;stroke-linecap:round;stroke-linejoin:round;stroke-miterlimit:10;stroke-dasharray:none;stroke-opacity:1"
                   id="path1255" /></g></g></g><g
             id="g1257"><path
               d="M 12.87634,33.54535 148.02402,-7.82635"
               style="fill:none;stroke:#ffffff;stroke-width:0.79701;stroke-linecap:butt;stroke-linejoin:miter;stroke-miterlimit:10;stroke-dasharray:none;stroke-opacity:1"
               id="path1259" /><g
               id="g1261"
               transform="matrix(0.95618,-0.2927,0.2927,0.95618,148.024,-7.82634)"><g
                 id="g1263"><path
                   d="M -1.55415,2.0722 C -1.42464,1.29512 0,0.1295 0.38852,0 0,-0.1295 -1.42464,-1.29512 -1.55415,-2.0722"
                   style="fill:none;stroke:#ffffff;stroke-width:0.6376;stroke-linecap:round;stroke-linejoin:round;stroke-miterlimit:10;stroke-dasharray:none;stroke-opacity:1"
                   id="path1265" /></g></g></g><g
             id="g1267"><path
               d="m 15.7606,-5.41014 135.0267,22.0453"
               style="fill:none;stroke:#ffffff;stroke-width:0.79701;stroke-linecap:butt;stroke-linejoin:miter;stroke-miterlimit:10;stroke-dasharray:none;stroke-opacity:1"
               id="path1269" /><g
               id="g1271"
               transform="matrix(0.9869,0.16112,-0.16112,0.9869,150.7873,16.63515)"><g
                 id="g1273"><path
                   d="M -1.55415,2.0722 C -1.42464,1.29512 0,0.1295 0.38852,0 0,-0.1295 -1.42464,-1.29512 -1.55415,-2.0722"
                   style="fill:none;stroke:#ffffff;stroke-width:0.6376;stroke-linecap:round;stroke-linejoin:round;stroke-miterlimit:10;stroke-dasharray:none;stroke-opacity:1"
                   id="path1275" /></g></g></g><g
             id="g1277"><path
               d="M -15.40729,-25.6644 159.27164,-42.30069"
               style="fill:none;stroke:#ffffff;stroke-width:0.79701;stroke-linecap:butt;stroke-linejoin:miter;stroke-miterlimit:10;stroke-dasharray:none;stroke-opacity:1"
               id="path1279" /><g
               id="g1281"
               transform="matrix(0.99544,-0.0948,0.0948,0.99544,159.27162,-42.30069)"><g
                 id="g1283"><path
                   d="M -1.55415,2.0722 C -1.42464,1.29512 0,0.1295 0.38852,0 0,-0.1295 -1.42464,-1.29512 -1.55415,-2.0722"
                   style="fill:none;stroke:#ffffff;stroke-width:0.6376;stroke-linecap:round;stroke-linejoin:round;stroke-miterlimit:10;stroke-dasharray:none;stroke-opacity:1"
                   id="path1285" /></g></g></g><g
             id="g1287"><path
               d="m 10.10843,-33.90349 157.66251,11.06388"
               style="fill:none;stroke:#ffffff;stroke-width:0.79701;stroke-linecap:butt;stroke-linejoin:miter;stroke-miterlimit:10;stroke-dasharray:none;stroke-opacity:1"
               id="path1289" /><g
               id="g1291"
               transform="matrix(0.99753,0.07,-0.07,0.99753,167.77092,-22.83961)"><g
                 id="g1293"><path
                   d="M -1.55415,2.0722 C -1.42464,1.29512 0,0.1295 0.38852,0 0,-0.1295 -1.42464,-1.29512 -1.55415,-2.0722"
                   style="fill:none;stroke:#ffffff;stroke-width:0.6376;stroke-linecap:round;stroke-linejoin:round;stroke-miterlimit:10;stroke-dasharray:none;stroke-opacity:1"
                   id="path1295" /></g></g></g><g
             id="g1297"><path
               d="m -15.40018,-25.4876 183.16571,2.77505"
               style="fill:none;stroke:#ffffff;stroke-width:0.79701;stroke-linecap:butt;stroke-linejoin:miter;stroke-miterlimit:10;stroke-dasharray:none;stroke-opacity:1"
               id="path1299" /><g
               id="g1301"
               transform="matrix(0.99986,0.01514,-0.01514,0.99986,167.76553,-22.71257)"><g
                 id="g1303"><path
                   d="M -1.55415,2.0722 C -1.42464,1.29512 0,0.1295 0.38852,0 0,-0.1295 -1.42464,-1.29512 -1.55415,-2.0722"
                   style="fill:none;stroke:#ffffff;stroke-width:0.6376;stroke-linecap:round;stroke-linejoin:round;stroke-miterlimit:10;stroke-dasharray:none;stroke-opacity:1"
                   id="path1305" /></g></g></g></g></g></g></g></svg>
