<?xml version="1.0" encoding="UTF-8" standalone="no"?>
<!-- Created with Inkscape (http://www.inkscape.org/) -->

<svg
   version="1.1"
   id="svg25"
   xml:space="preserve"
   width="333.66"
   height="183.35468"
   viewBox="0 0 333.66 183.35468"
   sodipodi:docname="002.svg"
   inkscape:version="1.1.2 (08b2f3d93c, 2022-04-05)"
   xmlns:inkscape="http://www.inkscape.org/namespaces/inkscape"
   xmlns:sodipodi="http://sodipodi.sourceforge.net/DTD/sodipodi-0.dtd"
   xmlns="http://www.w3.org/2000/svg"
   xmlns:svg="http://www.w3.org/2000/svg"><defs
     id="defs29" /><sodipodi:namedview
     id="namedview27"
     pagecolor="#ffffff"
     bordercolor="#666666"
     borderopacity="1.0"
     inkscape:pageshadow="2"
     inkscape:pageopacity="0.0"
     inkscape:pagecheckerboard="0"
     showgrid="false"
     inkscape:zoom="4.4013058"
     inkscape:cx="166.76869"
     inkscape:cy="91.677338"
     inkscape:window-width="2488"
     inkscape:window-height="1016"
     inkscape:window-x="72"
     inkscape:window-y="27"
     inkscape:window-maximized="1"
     inkscape:current-layer="g31" /><g
     id="g31"
     inkscape:groupmode="layer"
     inkscape:label="002"
     transform="matrix(1.3333333,0,0,-1.3333333,0,183.35467)"><g
       id="g33"
       transform="translate(40.083,74.756)"><g
         id="g35"><g
           id="g37"><g
             id="g39"><path
               d="M 39.68535,0 C 39.68535,34.4425 21.9179,62.36288 0,62.36288 -21.9179,62.36288 -39.68535,34.4425 -39.68535,0 c 0,-34.4425 17.76745,-62.36288 39.68535,-62.36288 21.9179,0 39.68535,27.92038 39.68535,62.36288 z"
               style="fill:none;stroke:#ffffff;stroke-width:0.79701;stroke-linecap:butt;stroke-linejoin:miter;stroke-miterlimit:10;stroke-dasharray:none;stroke-opacity:1"
               id="path41" /><g
               id="g43"><g
                 id="g45"
                 transform="translate(-32.082,-71.435)"><g
                   id="g47"><g
                     id="g49"
                     transform="translate(-8.001,-3.321)"><text
                       transform="matrix(1,0,0,-1,8.001,3.321)"
                       style="font-variant:normal;font-weight:normal;font-size:9.9626px;font-family:CMMI10;-inkscape-font-specification:CMMI10;writing-mode:lr-tb;fill:#ffffff;fill-opacity:1;fill-rule:nonzero;stroke:none"
                       id="text53"><tspan
                         x="0"
                         y="0"
                         id="tspan51">A</tspan></text><g
                       id="g55"
                       transform="translate(8.001,3.321)" /></g></g><g
                   id="g57"
                   transform="translate(32.082,71.435)" /></g></g></g><g
             id="g59"><path
               d="m 209.7662,0 c 0,34.4425 -17.76745,62.36288 -39.68534,62.36288 -21.9179,0 -39.68536,-27.92038 -39.68536,-62.36288 0,-34.4425 17.76746,-62.36288 39.68536,-62.36288 21.91789,0 39.68534,27.92038 39.68534,62.36288 z"
               style="fill:none;stroke:#ffffff;stroke-width:0.79701;stroke-linecap:butt;stroke-linejoin:miter;stroke-miterlimit:10;stroke-dasharray:none;stroke-opacity:1"
               id="path61" /><g
               id="g63"><g
                 id="g65"
                 transform="translate(194.397,-71.435)"><g
                   id="g67"><g
                     id="g69"
                     transform="translate(-234.48,-3.321)"><text
                       transform="matrix(1,0,0,-1,234.48,3.321)"
                       style="font-variant:normal;font-weight:normal;font-size:9.9626px;font-family:CMMI10;-inkscape-font-specification:CMMI10;writing-mode:lr-tb;fill:#ffffff;fill-opacity:1;fill-rule:nonzero;stroke:none"
                       id="text73"><tspan
                         x="0"
                         y="0"
                         id="tspan71">B</tspan></text><g
                       id="g75"
                       transform="translate(234.48,3.321)" /></g></g><g
                   id="g77"
                   transform="translate(-194.397,71.435)" /></g></g></g><g
             id="g79"><g
               id="g81"><path
                 d="m 12.74757,34.01608 c 0,0.77819 -0.63084,1.40903 -1.40902,1.40903 -0.7782,0 -1.40905,-0.63084 -1.40905,-1.40903 0,-0.7782 0.63085,-1.40904 1.40905,-1.40904 0.77818,0 1.40902,0.63084 1.40902,1.40904 z"
                 style="fill:#ffffff;fill-opacity:1;fill-rule:nonzero;stroke:#ffffff;stroke-width:0.3985;stroke-linecap:butt;stroke-linejoin:miter;stroke-miterlimit:10;stroke-dasharray:none;stroke-opacity:1"
                 id="path83" /></g><g
               id="g85"
               transform="translate(11.339,34.015)"><g
                 id="g87" /><g
                 id="g89"
                 transform="translate(-11.339,-34.015)" /></g></g><g
             id="g91"><g
               id="g93" /><g
               id="g95"
               transform="translate(0.945,31.871)"><g
                 id="g97"><g
                   id="g99"
                   transform="translate(-41.028,-106.627)"><text
                     transform="matrix(1,0,0,-1,41.028,106.627)"
                     style="font-variant:normal;font-weight:normal;font-size:9.9626px;font-family:CMMI10;-inkscape-font-specification:CMMI10;writing-mode:lr-tb;fill:#ffffff;fill-opacity:1;fill-rule:nonzero;stroke:none"
                     id="text103"><tspan
                       x="0"
                       y="0"
                       id="tspan101">a</tspan></text><g
                     id="g105"
                     transform="translate(41.028,106.627)" /></g></g><g
                 id="g107"
                 transform="translate(-0.945,-31.871)" /></g></g><g
             id="g109"><g
               id="g111"><path
                 d="m -4.26022,14.17339 c 0,0.77819 -0.63086,1.40904 -1.40905,1.40904 -0.77818,0 -1.40904,-0.63085 -1.40904,-1.40904 0,-0.77819 0.63086,-1.40905 1.40904,-1.40905 0.77819,0 1.40905,0.63086 1.40905,1.40905 z"
                 style="fill:#ffffff;fill-opacity:1;fill-rule:nonzero;stroke:#ffffff;stroke-width:0.3985;stroke-linecap:butt;stroke-linejoin:miter;stroke-miterlimit:10;stroke-dasharray:none;stroke-opacity:1"
                 id="path113" /></g><g
               id="g115"
               transform="translate(-5.669,14.173)"><g
                 id="g117" /><g
                 id="g119"
                 transform="translate(5.669,-14.173)" /></g></g><g
             id="g121"><g
               id="g123" /><g
               id="g125"
               transform="translate(-15.073,10.714)"><g
                 id="g127"><g
                   id="g129"
                   transform="translate(-25.01,-85.47)"><text
                     transform="matrix(1,0,0,-1,25.01,85.47)"
                     style="font-variant:normal;font-weight:normal;font-size:9.9626px;font-family:CMMI10;-inkscape-font-specification:CMMI10;writing-mode:lr-tb;fill:#ffffff;fill-opacity:1;fill-rule:nonzero;stroke:none"
                     id="text133"><tspan
                       x="0"
                       y="0"
                       id="tspan131">b</tspan></text><g
                     id="g135"
                     transform="translate(25.01,85.47)" /></g></g><g
                 id="g137"
                 transform="translate(15.073,-10.714)" /></g></g><g
             id="g139"><g
               id="g141"><path
                 d="m 15.58243,-5.66927 c 0,0.77819 -0.63085,1.40905 -1.40904,1.40905 -0.77819,0 -1.40905,-0.63086 -1.40905,-1.40905 0,-0.77818 0.63086,-1.40904 1.40905,-1.40904 0.77819,0 1.40904,0.63086 1.40904,1.40904 z"
                 style="fill:#ffffff;fill-opacity:1;fill-rule:nonzero;stroke:#ffffff;stroke-width:0.3985;stroke-linecap:butt;stroke-linejoin:miter;stroke-miterlimit:10;stroke-dasharray:none;stroke-opacity:1"
                 id="path143" /></g><g
               id="g145"
               transform="translate(14.174,-5.669)"><g
                 id="g147" /><g
                 id="g149"
                 transform="translate(-14.174,5.669)" /></g></g><g
             id="g151"><g
               id="g153" /><g
               id="g155"
               transform="translate(4.734,-7.814)"><g
                 id="g157"><g
                   id="g159"
                   transform="translate(-44.817,-66.942)"><text
                     transform="matrix(1,0,0,-1,44.817,66.942)"
                     style="font-variant:normal;font-weight:normal;font-size:9.9626px;font-family:CMMI10;-inkscape-font-specification:CMMI10;writing-mode:lr-tb;fill:#ffffff;fill-opacity:1;fill-rule:nonzero;stroke:none"
                     id="text163"><tspan
                       x="0"
                       y="0"
                       id="tspan161">c</tspan></text><g
                     id="g165"
                     transform="translate(44.817,66.942)" /></g></g><g
                 id="g167"
                 transform="translate(-4.734,7.814)" /></g></g><g
             id="g169"><g
               id="g171"><path
                 d="m -15.5992,-25.51193 c 0,0.77818 -0.63086,1.40904 -1.40904,1.40904 -0.77818,0 -1.40904,-0.63086 -1.40904,-1.40904 0,-0.7782 0.63086,-1.40904 1.40904,-1.40904 0.77818,0 1.40904,0.63084 1.40904,1.40904 z"
                 style="fill:#ffffff;fill-opacity:1;fill-rule:nonzero;stroke:#ffffff;stroke-width:0.3985;stroke-linecap:butt;stroke-linejoin:miter;stroke-miterlimit:10;stroke-dasharray:none;stroke-opacity:1"
                 id="path173" /></g><g
               id="g175"
               transform="translate(-17.008,-25.512)"><g
                 id="g177" /><g
                 id="g179"
                 transform="translate(17.008,25.512)" /></g></g><g
             id="g181"><g
               id="g183" /><g
               id="g185"
               transform="translate(-27.321,-28.971)"><g
                 id="g187"><g
                   id="g189"
                   transform="translate(-12.762,-45.785)"><text
                     transform="matrix(1,0,0,-1,12.762,45.785)"
                     style="font-variant:normal;font-weight:normal;font-size:9.9626px;font-family:CMMI10;-inkscape-font-specification:CMMI10;writing-mode:lr-tb;fill:#ffffff;fill-opacity:1;fill-rule:nonzero;stroke:none"
                     id="text193"><tspan
                       x="0"
                       y="0"
                       id="tspan191">d</tspan></text><g
                     id="g195"
                     transform="translate(12.762,45.785)" /></g></g><g
                 id="g197"
                 transform="translate(27.321,28.971)" /></g></g><g
             id="g199"><g
               id="g201"><path
                 d="m 9.91316,-34.01608 c 0,0.7782 -0.63086,1.40904 -1.40904,1.40904 -0.7782,0 -1.40904,-0.63084 -1.40904,-1.40904 0,-0.77819 0.63084,-1.40903 1.40904,-1.40903 0.77818,0 1.40904,0.63084 1.40904,1.40903 z"
                 style="fill:#ffffff;fill-opacity:1;fill-rule:nonzero;stroke:#ffffff;stroke-width:0.3985;stroke-linecap:butt;stroke-linejoin:miter;stroke-miterlimit:10;stroke-dasharray:none;stroke-opacity:1"
                 id="path203" /></g><g
               id="g205"
               transform="translate(8.504,-34.016)"><g
                 id="g207" /><g
                 id="g209"
                 transform="translate(-8.504,34.016)" /></g></g><g
             id="g211"><g
               id="g213" /><g
               id="g215"
               transform="translate(-1.263,-36.161)"><g
                 id="g217"><g
                   id="g219"
                   transform="translate(-38.82,-38.595)"><text
                     transform="matrix(1,0,0,-1,38.82,38.595)"
                     style="font-variant:normal;font-weight:normal;font-size:9.9626px;font-family:CMMI10;-inkscape-font-specification:CMMI10;writing-mode:lr-tb;fill:#ffffff;fill-opacity:1;fill-rule:nonzero;stroke:none"
                     id="text223"><tspan
                       x="0"
                       y="0"
                       id="tspan221">e</tspan></text><g
                     id="g225"
                     transform="translate(38.82,38.595)" /></g></g><g
                 id="g227"
                 transform="translate(1.263,36.161)" /></g></g><g
             id="g229"><g
               id="g231"><path
                 d="m 179.99402,36.85092 c 0,0.7782 -0.63086,1.40904 -1.40904,1.40904 -0.77818,0 -1.40905,-0.63084 -1.40905,-1.40904 0,-0.77818 0.63087,-1.40904 1.40905,-1.40904 0.77818,0 1.40904,0.63086 1.40904,1.40904 z"
                 style="fill:#ffffff;fill-opacity:1;fill-rule:nonzero;stroke:#ffffff;stroke-width:0.3985;stroke-linecap:butt;stroke-linejoin:miter;stroke-miterlimit:10;stroke-dasharray:none;stroke-opacity:1"
                 id="path233" /></g><g
               id="g235"
               transform="translate(178.583,36.85)"><g
                 id="g237" /><g
                 id="g239"
                 transform="translate(-178.583,-36.85)" /></g></g><g
             id="g241"><g
               id="g243" /><g
               id="g245"
               transform="translate(183.711,33.64)"><g
                 id="g247"><g
                   id="g249"
                   transform="translate(-223.794,-108.396)"><text
                     transform="matrix(1,0,0,-1,223.794,108.396)"
                     style="font-variant:normal;font-weight:normal;font-size:9.9626px;font-family:CMR10;-inkscape-font-specification:CMR10;writing-mode:lr-tb;fill:#ffffff;fill-opacity:1;fill-rule:nonzero;stroke:none"
                     id="text253"><tspan
                       x="0"
                       y="0"
                       id="tspan251">1</tspan></text><g
                     id="g255"
                     transform="translate(223.794,108.396)" /></g></g><g
                 id="g257"
                 transform="translate(-183.711,-33.64)" /></g></g><g
             id="g259"><g
               id="g261"><path
                 d="m 154.48163,17.00824 c 0,0.77818 -0.63085,1.40904 -1.40904,1.40904 -0.77819,0 -1.40905,-0.63086 -1.40905,-1.40904 0,-0.77818 0.63086,-1.40904 1.40905,-1.40904 0.77819,0 1.40904,0.63086 1.40904,1.40904 z"
                 style="fill:#ffffff;fill-opacity:1;fill-rule:nonzero;stroke:#ffffff;stroke-width:0.3985;stroke-linecap:butt;stroke-linejoin:miter;stroke-miterlimit:10;stroke-dasharray:none;stroke-opacity:1"
                 id="path263" /></g><g
               id="g265"
               transform="translate(153.071,17.008)"><g
                 id="g267" /><g
                 id="g269"
                 transform="translate(-153.071,-17.008)" /></g></g><g
             id="g271"><g
               id="g273" /><g
               id="g275"
               transform="translate(158.199,13.798)"><g
                 id="g277"><g
                   id="g279"
                   transform="translate(-198.282,-88.554)"><text
                     transform="matrix(1,0,0,-1,198.282,88.554)"
                     style="font-variant:normal;font-weight:normal;font-size:9.9626px;font-family:CMR10;-inkscape-font-specification:CMR10;writing-mode:lr-tb;fill:#ffffff;fill-opacity:1;fill-rule:nonzero;stroke:none"
                     id="text283"><tspan
                       x="0"
                       y="0"
                       id="tspan281">2</tspan></text><g
                     id="g285"
                     transform="translate(198.282,88.554)" /></g></g><g
                 id="g287"
                 transform="translate(-158.199,-13.798)" /></g></g><g
             id="g289"><g
               id="g291"><path
                 d="m 182.82845,-5.66927 c 0,0.77819 -0.63086,1.40905 -1.40905,1.40905 -0.7782,0 -1.40904,-0.63086 -1.40904,-1.40905 0,-0.77818 0.63084,-1.40904 1.40904,-1.40904 0.77819,0 1.40905,0.63086 1.40905,1.40904 z"
                 style="fill:#ffffff;fill-opacity:1;fill-rule:nonzero;stroke:#ffffff;stroke-width:0.3985;stroke-linecap:butt;stroke-linejoin:miter;stroke-miterlimit:10;stroke-dasharray:none;stroke-opacity:1"
                 id="path293" /></g><g
               id="g295"
               transform="translate(181.417,-5.669)"><g
                 id="g297" /><g
                 id="g299"
                 transform="translate(-181.417,5.669)" /></g></g><g
             id="g301"><g
               id="g303" /><g
               id="g305"
               transform="translate(186.545,-8.879)"><g
                 id="g307"><g
                   id="g309"
                   transform="translate(-226.628,-65.877)"><text
                     transform="matrix(1,0,0,-1,226.628,65.877)"
                     style="font-variant:normal;font-weight:normal;font-size:9.9626px;font-family:CMR10;-inkscape-font-specification:CMR10;writing-mode:lr-tb;fill:#ffffff;fill-opacity:1;fill-rule:nonzero;stroke:none"
                     id="text313"><tspan
                       x="0"
                       y="0"
                       id="tspan311">3</tspan></text><g
                     id="g315"
                     transform="translate(226.628,65.877)" /></g></g><g
                 id="g317"
                 transform="translate(-186.545,8.879)" /></g></g><g
             id="g319"><g
               id="g321"><path
                 d="m 171.4899,-22.67752 c 0,0.7782 -0.63086,1.40904 -1.40904,1.40904 -0.7782,0 -1.40905,-0.63084 -1.40905,-1.40904 0,-0.77818 0.63085,-1.40903 1.40905,-1.40903 0.77818,0 1.40904,0.63085 1.40904,1.40903 z"
                 style="fill:#ffffff;fill-opacity:1;fill-rule:nonzero;stroke:#ffffff;stroke-width:0.3985;stroke-linecap:butt;stroke-linejoin:miter;stroke-miterlimit:10;stroke-dasharray:none;stroke-opacity:1"
                 id="path323" /></g><g
               id="g325"
               transform="translate(170.079,-22.677)"><g
                 id="g327" /><g
                 id="g329"
                 transform="translate(-170.079,22.677)" /></g></g><g
             id="g331"><g
               id="g333" /><g
               id="g335"
               transform="translate(175.207,-25.887)"><g
                 id="g337"><g
                   id="g339"
                   transform="translate(-215.29,-48.869)"><text
                     transform="matrix(1,0,0,-1,215.29,48.869)"
                     style="font-variant:normal;font-weight:normal;font-size:9.9626px;font-family:CMR10;-inkscape-font-specification:CMR10;writing-mode:lr-tb;fill:#ffffff;fill-opacity:1;fill-rule:nonzero;stroke:none"
                     id="text343"><tspan
                       x="0"
                       y="0"
                       id="tspan341">4</tspan></text><g
                     id="g345"
                     transform="translate(215.29,48.869)" /></g></g><g
                 id="g347"
                 transform="translate(-175.207,25.887)" /></g></g><g
             id="g349"><g
               id="g351"><path
                 d="m 162.98575,-42.5202 c 0,0.7782 -0.63085,1.40904 -1.40905,1.40904 -0.77818,0 -1.40902,-0.63084 -1.40902,-1.40904 0,-0.77819 0.63084,-1.40904 1.40902,-1.40904 0.7782,0 1.40905,0.63085 1.40905,1.40904 z"
                 style="fill:#ffffff;fill-opacity:1;fill-rule:nonzero;stroke:#ffffff;stroke-width:0.3985;stroke-linecap:butt;stroke-linejoin:miter;stroke-miterlimit:10;stroke-dasharray:none;stroke-opacity:1"
                 id="path353" /></g><g
               id="g355"
               transform="translate(161.575,-42.52)"><g
                 id="g357" /><g
                 id="g359"
                 transform="translate(-161.575,42.52)" /></g></g><g
             id="g361"><g
               id="g363" /><g
               id="g365"
               transform="translate(166.703,-45.73)"><g
                 id="g367"><g
                   id="g369"
                   transform="translate(-206.786,-29.026)"><text
                     transform="matrix(1,0,0,-1,206.786,29.026)"
                     style="font-variant:normal;font-weight:normal;font-size:9.9626px;font-family:CMR10;-inkscape-font-specification:CMR10;writing-mode:lr-tb;fill:#ffffff;fill-opacity:1;fill-rule:nonzero;stroke:none"
                     id="text373"><tspan
                       x="0"
                       y="0"
                       id="tspan371">5</tspan></text><g
                     id="g375"
                     transform="translate(206.786,29.026)" /></g></g><g
                 id="g377"
                 transform="translate(-166.703,45.73)" /></g></g><g
             id="g379"><g
               id="g381"><path
                 d="m 151.6472,-8.50412 c 0,0.7782 -0.63084,1.40904 -1.40904,1.40904 -0.77818,0 -1.40904,-0.63084 -1.40904,-1.40904 0,-0.77818 0.63086,-1.40904 1.40904,-1.40904 0.7782,0 1.40904,0.63086 1.40904,1.40904 z"
                 style="fill:#ffffff;fill-opacity:1;fill-rule:nonzero;stroke:#ffffff;stroke-width:0.3985;stroke-linecap:butt;stroke-linejoin:miter;stroke-miterlimit:10;stroke-dasharray:none;stroke-opacity:1"
                 id="path383" /></g><g
               id="g385"
               transform="translate(150.237,-8.504)"><g
                 id="g387" /><g
                 id="g389"
                 transform="translate(-150.237,8.504)" /></g></g><g
             id="g391"><g
               id="g393" /><g
               id="g395"
               transform="translate(155.365,-11.714)"><g
                 id="g397"><g
                   id="g399"
                   transform="translate(-195.448,-63.042)"><text
                     transform="matrix(1,0,0,-1,195.448,63.042)"
                     style="font-variant:normal;font-weight:normal;font-size:9.9626px;font-family:CMR10;-inkscape-font-specification:CMR10;writing-mode:lr-tb;fill:#ffffff;fill-opacity:1;fill-rule:nonzero;stroke:none"
                     id="text403"><tspan
                       x="0"
                       y="0"
                       id="tspan401">6</tspan></text><g
                     id="g405"
                     transform="translate(195.448,63.042)" /></g></g><g
                 id="g407"
                 transform="translate(-155.365,11.714)" /></g></g><g
             id="g409"><path
               d="M 12.9353,33.82446 150.77351,17.2841"
               style="fill:none;stroke:#ffffff;stroke-width:0.79701;stroke-linecap:butt;stroke-linejoin:miter;stroke-miterlimit:10;stroke-dasharray:none;stroke-opacity:1"
               id="path411" /><g
               id="g413"
               transform="matrix(0.99284,-0.11914,0.11914,0.99284,150.77351,17.28412)"><g
                 id="g415"><path
                   d="M -1.55415,2.0722 C -1.42464,1.29512 0,0.1295 0.38852,0 0,-0.1295 -1.42464,-1.29512 -1.55415,-2.0722"
                   style="fill:none;stroke:#ffffff;stroke-width:0.6376;stroke-linecap:round;stroke-linejoin:round;stroke-miterlimit:10;stroke-dasharray:none;stroke-opacity:1"
                   id="path417" /></g></g></g><g
             id="g419"><path
               d="M -4.07779,13.94193 147.94678,-8.17085"
               style="fill:none;stroke:#ffffff;stroke-width:0.79701;stroke-linecap:butt;stroke-linejoin:miter;stroke-miterlimit:10;stroke-dasharray:none;stroke-opacity:1"
               id="path421" /><g
               id="g423"
               transform="matrix(0.98953,-0.14392,0.14392,0.98953,147.94676,-8.17085)"><g
                 id="g425"><path
                   d="M -1.55415,2.0722 C -1.42464,1.29512 0,0.1295 0.38852,0 0,-0.1295 -1.42464,-1.29512 -1.55415,-2.0722"
                   style="fill:none;stroke:#ffffff;stroke-width:0.6376;stroke-linecap:round;stroke-linejoin:round;stroke-miterlimit:10;stroke-dasharray:none;stroke-opacity:1"
                   id="path427" /></g></g></g><g
             id="g429"><path
               d="m 15.7606,-5.41014 135.0267,22.0453"
               style="fill:none;stroke:#ffffff;stroke-width:0.79701;stroke-linecap:butt;stroke-linejoin:miter;stroke-miterlimit:10;stroke-dasharray:none;stroke-opacity:1"
               id="path431" /><g
               id="g433"
               transform="matrix(0.9869,0.16112,-0.16112,0.9869,150.7873,16.63515)"><g
                 id="g435"><path
                   d="M -1.55415,2.0722 C -1.42464,1.29512 0,0.1295 0.38852,0 0,-0.1295 -1.42464,-1.29512 -1.55415,-2.0722"
                   style="fill:none;stroke:#ffffff;stroke-width:0.6376;stroke-linecap:round;stroke-linejoin:round;stroke-miterlimit:10;stroke-dasharray:none;stroke-opacity:1"
                   id="path437" /></g></g></g><g
             id="g439"><path
               d="M -15.40729,-25.6644 159.27164,-42.30069"
               style="fill:none;stroke:#ffffff;stroke-width:0.79701;stroke-linecap:butt;stroke-linejoin:miter;stroke-miterlimit:10;stroke-dasharray:none;stroke-opacity:1"
               id="path441" /><g
               id="g443"
               transform="matrix(0.99544,-0.0948,0.0948,0.99544,159.27162,-42.30069)"><g
                 id="g445"><path
                   d="M -1.55415,2.0722 C -1.42464,1.29512 0,0.1295 0.38852,0 0,-0.1295 -1.42464,-1.29512 -1.55415,-2.0722"
                   style="fill:none;stroke:#ffffff;stroke-width:0.6376;stroke-linecap:round;stroke-linejoin:round;stroke-miterlimit:10;stroke-dasharray:none;stroke-opacity:1"
                   id="path447" /></g></g></g><g
             id="g449"><path
               d="m 10.10843,-33.90349 157.66251,11.06388"
               style="fill:none;stroke:#ffffff;stroke-width:0.79701;stroke-linecap:butt;stroke-linejoin:miter;stroke-miterlimit:10;stroke-dasharray:none;stroke-opacity:1"
               id="path451" /><g
               id="g453"
               transform="matrix(0.99753,0.07,-0.07,0.99753,167.77092,-22.83961)"><g
                 id="g455"><path
                   d="M -1.55415,2.0722 C -1.42464,1.29512 0,0.1295 0.38852,0 0,-0.1295 -1.42464,-1.29512 -1.55415,-2.0722"
                   style="fill:none;stroke:#ffffff;stroke-width:0.6376;stroke-linecap:round;stroke-linejoin:round;stroke-miterlimit:10;stroke-dasharray:none;stroke-opacity:1"
                   id="path457" /></g></g></g></g></g></g></g></svg>
